<?xml version="1.0" encoding="UTF-8"?>
<!DOCTYPE svg PUBLIC "-//W3C//DTD SVG 1.1//EN" "http://www.w3.org/Graphics/SVG/1.1/DTD/svg11.dtd">
<!-- Creator: CorelDRAW 2020 (64 Bit) -->
<?xml-stylesheet href="logo_grupo_scc.css" type="text/css"?>
<svg xmlns="http://www.w3.org/2000/svg" xml:space="preserve" width="111.625mm" height="63.9015mm" version="1.1" style="shape-rendering:geometricPrecision; text-rendering:geometricPrecision; image-rendering:optimizeQuality; fill-rule:evenodd; clip-rule:evenodd"
viewBox="0 0 6938.83 3972.25"
 xmlns:xlink="http://www.w3.org/1999/xlink"
 xmlns:xodm="http://www.corel.com/coreldraw/odm/2003">
 <g id="Camada_x0020_1">
  <metadata id="CorelCorpID_0Corel-Layer"/>
  <path class="fil0" d="M951.44 1636.51c319.08,-60.74 724.02,145.75 789.89,142.12 74.01,-4.08 53.48,-121.44 53.47,-182.18 -0.01,-78.67 0.09,-157.33 0.02,-236 -0.19,-249.38 40.57,-229.86 -183.96,-290.19 -261.9,-70.36 -566.22,-112 -844.27,-53.56 -127.87,26.89 -239.69,70.06 -341.74,130.75 -110.03,65.43 -174.02,129.41 -249.67,222.27 -140.86,172.91 -220.59,484.17 -147.64,761.07 65.36,248.07 237.55,397.73 447.14,496.98 279.41,132.32 501.13,148.17 694.59,249.34 61.37,32.09 90.51,52.2 98.26,137.26 21.76,238.75 -233.7,280.66 -436.17,267.42 -139.32,-9.12 -277.37,-37.56 -401.85,-77.86 -63.17,-20.45 -310,-123.5 -351.41,-110.95 -65.62,19.91 -45.38,126.19 -45.37,189.17 0.01,78.67 0,157.33 0,235.99 0,265.52 -40.29,235.12 172.28,297.78 285.07,84.04 498.59,137.33 831.28,109.53 527.84,-44.12 938.41,-407.39 918.68,-980.55 -9.83,-285.63 -168.52,-509.77 -328.83,-617.38 -194.18,-130.36 -439.82,-177.15 -690.19,-254.09 -122.29,-37.57 -259.55,-70.22 -246.18,-223.12 11.77,-134.72 132.26,-189.15 261.67,-213.79z"/>
  <path class="fil0" d="M3688.91 3970.79c336.88,0 612.56,-116.42 831.93,-261.15 107.6,-70.99 -1.8,-168.57 -115.42,-334.86 -38.17,-55.87 -73.07,-105.48 -110.88,-158.86 -150.16,-212 -101.5,-136.91 -306.5,-39.44 -477.96,227.26 -1051.8,-89.1 -1056.27,-686.47 -4.51,-602.97 561.55,-932.49 1050.75,-706.83 209.87,96.81 156.17,173.48 303.55,-36.25 37.55,-53.44 75.46,-104.63 111.84,-158.12 114.77,-168.78 226.92,-257.84 115,-335.92 -581.74,-405.85 -1388.14,-313.8 -1881.46,171.02 -207.25,203.68 -440.12,584.89 -440.17,1023.79l-0.01 75.86c-0.06,797.64 682.96,1447.22 1497.64,1447.22z"/>
  <path class="fil0" d="M6916.22 1377.31c47.96,-76.94 -23.9,-117.77 -70.2,-147.94 -370.55,-241.51 -866.9,-298.52 -1282.31,-151.94 -1017.24,358.95 -1297.52,1585.46 -676.62,2338.22 477.46,578.87 1297.43,737.11 1951.76,327.77 162.9,-101.9 96.86,-134.25 11.84,-260.1 -29.23,-43.29 -259.19,-387.16 -292.84,-398.69 -78.61,-26.93 -178.31,159.1 -508.95,164.32 -858.98,13.55 -1018.88,-1224.33 -257.4,-1496.54 122.09,-43.65 273.2,-51.02 402.51,-22.71 280.86,61.46 319.05,222.61 395.65,112.26 85.36,-122.98 260.75,-359.08 326.55,-464.65z"/>
  <path class="fil0" d="M2764.53 365.89c-70.21,314.29 -519.15,226.12 -465.89,-92.34 19.87,-118.8 135.98,-215.6 285.27,-185.84 109.89,21.9 210.89,142.64 180.61,278.18zm-545.71 -8.43c56.05,416.72 662.57,341.51 624.79,-66.19 -15.62,-168.5 -158.97,-302 -351.98,-281.71 -157.15,16.52 -297.23,166.21 -272.8,347.9z"/>
  <path class="fil0" d="M724.41 90.6c138.54,-0.84 290.72,-27.07 288.43,132.1 -2.23,153.66 -161.98,123.57 -291.67,123.61l3.24 -255.71zm264.8 305.12c106.07,-45.71 138.04,-216.85 53.91,-317.24 -74.5,-88.9 -256.75,-60.61 -398.58,-64.15l0.46 623.03 75.83 -1.88 -0.01 -212.35 186.69 0.17c21.18,25.58 87.11,175.42 99.78,214.12l84.5 -3.49 -102.58 -238.22z"/>
  <path class="fil0" d="M485.55 534.66c-99.25,39.41 -177.86,62.52 -278.76,-7.42 -61.74,-42.8 -115.32,-125.88 -97.57,-244.2 14.05,-93.65 82.42,-163.91 163.28,-189.45 136.87,-43.23 205.62,36.1 258.47,63.44l39.62 -52.43c-21.76,-40.58 -89.41,-78.32 -153.65,-91.48 -380.06,-77.86 -545.99,446.42 -202.66,607.7 155.44,73.02 338.63,-17.9 348.97,-61.09l-0.19 -228.11 -250.76 3.45 0.01 73.15 173.2 2.1 0.05 124.33z"/>
  <path class="fil0" d="M1138.82 0.04c1.65,261.17 -73.85,652.5 265.26,649.69 322.38,-2.68 254.65,-401.98 254.37,-649.17l-80.43 -0.57c0.48,122.48 6.41,261.9 -0.45,382.51 -6.51,114.48 -59.82,189.6 -181.09,187.59 -121.43,-2.01 -172.76,-76.62 -178.53,-195.46 -5.56,-114.49 -3.49,-257.1 0.62,-373.27l-79.74 -1.34z"/>
  <path class="fil0" d="M1822.94 92.59c128.27,-13.22 266.5,-12.23 264.82,129.93 -1.64,139.28 -136.32,132.41 -267.75,122.35l2.93 -252.28zm-3.21 333.33c97.59,-11.15 177.73,15.93 258.62,-35.07 54.03,-34.06 100.07,-108.97 84.68,-209.62 -28.81,-188.29 -228.73,-172.08 -420.56,-165.65l-0.06 620.93 77.41 0.83 -0.09 -211.41z"/>
 </g>
</svg>
